<svg xmlns:dc="http://purl.org/dc/elements/1.1/" xmlns:cc="http://creativecommons.org/ns#" xmlns:rdf="http://www.w3.org/1999/02/22-rdf-syntax-ns#" xmlns:svg="http://www.w3.org/2000/svg" xmlns="http://www.w3.org/2000/svg" xmlns:sodipodi="http://sodipodi.sourceforge.net/DTD/sodipodi-0.dtd" xmlns:inkscape="http://www.inkscape.org/namespaces/inkscape" viewBox="0 0 47.999997 60" version="1.1" x="0px" y="0px"><path style="color:#000000;font-style:normal;font-variant:normal;font-weight:normal;font-stretch:normal;font-size:medium;line-height:normal;font-family:sans-serif;text-indent:0;text-align:start;text-decoration:none;text-decoration-line:none;text-decoration-style:solid;text-decoration-color:#000000;letter-spacing:normal;word-spacing:normal;text-transform:none;direction:ltr;block-progression:tb;writing-mode:lr-tb;baseline-shift:baseline;text-anchor:start;white-space:normal;clip-rule:nonzero;display:inline;overflow:visible;visibility:visible;opacity:1;isolation:auto;mix-blend-mode:normal;color-interpolation:sRGB;color-interpolation-filters:linearRGB;solid-color:#000000;solid-opacity:1;fill:#000000;fill-opacity:1;fill-rule:nonzero;stroke:none;stroke-width:1.99999988;stroke-linecap:butt;stroke-linejoin:round;stroke-miterlimit:4;stroke-dasharray:none;stroke-dashoffset:0;stroke-opacity:1;marker:none;color-rendering:auto;image-rendering:auto;shape-rendering:auto;text-rendering:auto;enable-background:accumulate" d="M 13,0 C 10.8048,0 9,1.8048 9,4 l 0,13 c 0,0.55228 0.4477,1 1,1 0.5523,0 1,-0.44772 1,-1 l 0,-7 26,0 0,7 c 0,0.55228 0.4477,1 1,1 0.5523,0 1,-0.44772 1,-1 L 39,4 C 39,1.8048 37.1952,0 35,0 Z m 0,2 22,0 c 1.1026,0 2,0.8973 2,2 l 0,4 -26,0 0,-4 c 0,-1.1027 0.8974,-2 2,-2 z m 9,2 c -0.554,0 -1,0.446 -1,1 0,0.554 0.446,1 1,1 l 4,0 C 26.554,6 27,5.554 27,5 27,4.446 26.554,4 26,4 Z m 4.994141,15.990234 c -0.255875,0.0017 -0.510378,0.101175 -0.705079,0.296875 l -2.291015,2.291016 -2.291016,-2.291016 c -0.3894,-0.3875 -1.022462,-0.3893 -1.414062,0 -0.3924,0.3905 -0.3904,1.025416 0,1.416016 l 2.292969,2.292969 -2.283204,2.292968 c -0.3904,0.390502 -0.3904,1.023563 0,1.414063 0.3908,0.3924 1.02241,0.3897 1.41211,0 l 2.289062,-2.289063 2.291016,2.291016 c 0.1829,0.184 0.430053,0.273203 0.689453,0.283203 0.2696,0.0042 0.531456,-0.100715 0.722656,-0.291015 0.3924,-0.3905 0.3904,-1.025516 0,-1.416016 l -2.292969,-2.292969 2.289063,-2.296875 c 0.3904,-0.3905 0.3904,-1.023562 0,-1.414062 -0.1958,-0.19255 -0.453109,-0.288822 -0.708984,-0.28711 z M 12.996094,20 c -2.1972,0 -4.0000002,1.8028 -4.0000002,4 0,2.1971 1.8028002,4 4.0000002,4 2.1972,0 4,-1.8029 4,-4 0,-2.1972 -1.8028,-4 -4,-4 z M 33,20 c -1.090703,0 -2,0.909297 -2,2 l 0,4 c 0,1.090703 0.909297,2 2,2 l 4,0 c 1.090703,0 2,-0.909297 2,-2 l 0,-4 c 0,-1.090703 -0.909297,-2 -2,-2 z m -20.003906,2 c 1.1163,0 2,0.8837 2,2 0,1.1163 -0.8837,2 -2,2 -1.1163,0 -2,-0.8837 -2,-2 0,-1.1163 0.8837,-2 2,-2 z M 33,22 l 4,0 0,4 -4,0 z m -23,8 c -0.5523,0 -1,0.44772 -1,1 l 0,13 c 0,2.1952 1.8048,4 4,4 l 22,0 c 2.1952,0 4,-1.8048 4,-4 l 0,-13 c 0,-0.55228 -0.4477,-1 -1,-1 -0.5523,0 -1,0.44772 -1,1 l 0,7 -26,0 0,-7 c 0,-0.55228 -0.4477,-1 -1,-1 z m 1,10 26,0 0,4 c 0,1.1027 -0.8974,2 -2,2 l -22,0 c -1.1026,0 -2,-0.8973 -2,-2 z m 13,2 c -0.552285,0 -1,0.447715 -1,1 0,0.552285 0.447715,1 1,1 0.552285,0 1,-0.447715 1,-1 0,-0.552285 -0.447715,-1 -1,-1 z" transform="translate(-1.9073486e-6,0)"/><text x="0" y="63" fill="#000000" font-size="5px" font-weight="bold" font-family="'Helvetica Neue', Helvetica, Arial-Unicode, Arial, Sans-serif">Created by ICONCRAFT</text><text x="0" y="68" fill="#000000" font-size="5px" font-weight="bold" font-family="'Helvetica Neue', Helvetica, Arial-Unicode, Arial, Sans-serif">from the Noun Project</text></svg>